inDegrees=yes
name=ik_S47_A11_T02
DataType=double
version=3
OpenSimVersion=4.3-2021-08-27-4bc7ad9
endheader
time	pelvis_tilt	pelvis_list	pelvis_rotation	pelvis_tx	pelvis_ty	pelvis_tz	hip_flexion_r	hip_adduction_r	hip_rotation_r	knee_angle_r	knee_angle_r_beta	ankle_angle_r	subtalar_angle_r	mtp_angle_r	hip_flexion_l	hip_adduction_l	hip_rotation_l	knee_angle_l	knee_angle_l_beta	ankle_angle_l	subtalar_angle_l	mtp_angle_l	lumbar_extension	lumbar_bending	lumbar_rotation	arm_flex_r	arm_add_r	arm_rot_r	elbow_flex_r	pro_sup_r	wrist_flex_r	wrist_dev_r	arm_flex_l	arm_add_l	arm_rot_l	elbow_flex_l	pro_sup_l	wrist_flex_l	wrist_dev_l
3.420000000000003	-0.7485401986402722	-0.4464736566800498	38.13925643230911	0	0.9399999999999999	0	25.68604955309355	-8.572703886744879	-7.613713918946911	29.84620952783796	0.5209146255008745	0	0	0	25.68604955309355	-8.572703886744879	-7.613713918946911	29.84620952783796	0.5209146255008745	0	0	0	-0.565209486976634	0.4313040080242795	13.36776900364313	51.29660199161942	-6.212049817447096	26.0313372944981	5.518953071199314	61.37132633181889	0	0	15.21073724931613	-6.019404116042673	-3.686431607805108	8.726384867171992	126.2577171957638	0	0
3.440000000000003	-0.7012815235055264	-0.5128720401407115	38.55435539019549	0	0.9399999999999999	0	25.89124683358079	-8.607901132020338	-7.657278580664442	30.09297337731657	0.5252214671491719	0	0	0	25.89124683358079	-8.607901132020338	-7.657278580664442	30.09297337731657	0.5252214671491719	0	0	0	-0.5772357809162785	0.3602225256180368	13.32086777280726	56.11264679405167	-6.140013988599106	26.51007793107054	6.186949587163927	58.69061642706584	0	0	15.47477016264164	-6.184305032603656	-3.610587036756792	8.602683846794779	126.5797464141375	0	0
3.460000000000003	-0.6305557676332897	-0.5681276036523496	39.04384629597455	0	0.9399999999999999	0	26.09246035937144	-8.64210622977669	-7.699799136104932	30.33443105645168	0.5294356986543036	0	0	0	26.09246035937144	-8.64210622977669	-7.699799136104932	30.33443105645168	0.5294356986543036	0	0	0	-0.5660243836669742	0.2877709964764609	13.2673301213451	60.75040221429877	-6.035232857130365	26.89678537660899	6.803779912106501	56.5877863319989	0	0	15.69774670032879	-6.324672994083008	-3.440376153069297	8.763314580622179	126.2318925578931	0	0
3.480000000000003	-0.5900340854462985	-0.5917942249345209	39.39725186782213	0	0.9399999999999999	0	26.28254379882678	-8.673806732230245	-7.739564485151591	30.56306826880203	0.5334261708023988	0	0	0	26.28254379882678	-8.673806732230245	-7.739564485151591	30.56306826880203	0.5334261708023988	0	0	0	-0.5553892803674958	0.2529503882741919	13.1445904369896	65.34601991431205	-5.719837536540306	27.4600831567225	7.535574601134774	54.90170902316417	0	0	15.86576127338233	-6.405948271182892	-3.506484006407546	8.680439442500212	126.5408993939494	0	0
3.500000000000003	-0.4224184083037625	-0.7023900167341538	40.27192840249572	0	0.9399999999999999	0	26.42355152785717	-8.69692587067154	-7.768775252032485	30.73375844026631	0.536405276295244	0	0	0	26.42355152785717	-8.69692587067154	-7.768775252032485	30.73375844026631	0.536405276295244	0	0	0	-0.5038386753543399	0.06226577057886514	13.39061507140026	69.4909686803006	-5.771016084966474	27.33155793513381	5.914078634424145	53.96120644536911	0	0	16.13639462940378	-6.508014727523075	-2.671133096603497	9.073774993148858	125.5045657628252	0	0
3.520000000000003	-0.2955228239366769	-0.7542124290069574	41.06883020079718	0	0.9399999999999999	0	26.67774390388104	-8.738060077982626	-7.821129019181495	31.03987834201757	0.5417480764866851	0	0	0	26.67774390388104	-8.738060077982626	-7.821129019181495	31.03987834201757	0.5417480764866851	0	0	0	-0.4661862585122608	-0.01257570231344927	13.22597637754331	77.39310255276432	-4.149602579581614	28.27960242076461	4.800838497865039	51.69448858279991	0	0	16.30565148436377	-6.541215222215413	-2.404318114517905	8.961114555219721	125.9318591771408	0	0
3.540000000000003	-0.1960830437644933	-0.7980843209286307	41.63201716588599	0	0.9399999999999999	0	26.70628314462949	-8.744504142501206	-7.828286411129064	31.06704517187517	0.5422222271150294	0	0	0	26.70628314462949	-8.744504142501206	-7.828286411129064	31.06704517187517	0.5422222271150294	0	0	0	-0.4133252601304868	-0.1257619639941396	13.34416052837017	77.56992641733086	-5.047629961608494	27.89023989365286	8.805019593933009	50.59626458050365	0	0	16.3315565827031	-6.549407461609938	-1.689942658850848	9.451137040161479	124.3659825824284	0	0
3.560000000000003	-0.06941566199163839	-0.8487688193634879	42.24799772209542	0	0.9399999999999999	0	26.83616264194041	-8.765218795081818	-7.854809245886224	31.22406356537038	0.5449627150677128	0	0	0	26.83616264194041	-8.765218795081818	-7.854809245886224	31.22406356537038	0.5449627150677128	0	0	0	-0.3667474799610733	-0.2441271253102506	13.39245444677291	84.16594493212344	-2.842747737404169	29.33221453902731	3.992952193480465	48.61396970631162	0	0	16.51402447343412	-6.571059662274777	-1.459378998752558	9.483701550749908	124.0813029326964	0	0
3.580000000000003	0.05089818302731226	-0.9245774726358218	43.03275432785876	0	0.9399999999999999	0	26.98169474203216	-8.789073777792456	-7.884993103110927	31.39671338538228	0.5479760228798961	0	0	0	26.98169474203216	-8.789073777792456	-7.884993103110927	31.39671338538228	0.5479760228798961	0	0	0	-0.3284475737366001	-0.3869707944586085	13.31847136391126	87.28861261508843	-2.372205983384523	30.10828515684121	6.583185436529948	45.82244042077193	0	0	16.7915489523743	-6.596156274763367	-1.834362638208902	9.515683446733879	124.4827093102833	0	0
3.600000000000003	0.170617928249685	-0.978994007336299	43.50561371039359	0	0.9399999999999999	0	26.98659578730691	-8.790158941411191	-7.886210141589311	31.40137778606716	0.5480574320294795	0	0	0	26.98659578730691	-8.790158941411191	-7.886210141589311	31.40137778606716	0.5480574320294795	0	0	0	-0.275682552529264	-0.5123703923366368	13.537765226449	87.23437006974385	-3.042602103489745	29.81433275792322	6.547924198954722	45.80312184248819	0	0	16.84659681674377	-6.575396474002686	-1.690474652867732	9.618651542115403	124.417827912122	0	0
3.620000000000003	0.3070702891463319	-1.032123715062257	44.23116831587324	0	0.9399999999999999	0	27.1363587150285	-8.814162953777583	-7.916905199502371	31.57992908220521	0.5511737400307919	0	0	0	27.1363587150285	-8.814162953777583	-7.916905199502371	31.57992908220521	0.5511737400307919	0	0	0	-0.2130172948267514	-0.6451055944136369	13.47418290107193	90.00959781806124	-2.54577623879167	30.71417185309019	8.906836984292267	43.32168722329315	0	0	16.84388319510608	-6.615086318341966	-1.595859252871553	9.741195261937673	124.2849637409905	0	0
3.640000000000003	0.422465232091827	-1.110448311994945	44.74518581433913	0	0.9399999999999999	0	27.14590810970505	-8.816257313353573	-7.919266133576125	31.58899534340266	0.5513319761395332	0	0	0	27.14590810970505	-8.816257313353573	-7.919266133576125	31.58899534340266	0.5513319761395332	0	0	0	-0.180923463470986	-0.7922598958626575	13.6060474092208	90.18541507466981	-3.377631185797763	30.3606810003124	12.19069244686671	42.59645986895298	0	0	16.84753754361136	-6.673106318925107	-1.524573476619994	9.862566316997071	124.25206369643	0	0
3.660000000000003	0.5501986434110505	-1.165375747748675	45.5251930140486	0	0.9399999999999999	0	27.27455735102399	-8.836151084428984	-7.945118635085383	31.74447751928004	0.5540456520367585	0	0	0	27.27455735102399	-8.836151084428984	-7.945118635085383	31.74447751928004	0.5540456520367585	0	0	0	-0.1300166177453434	-0.9202934205548532	13.3763744233575	94.88359095989672	-1.270490951520173	31.86993308080961	12.80901541759135	41.34888514996439	0	0	16.7492044746569	-6.72628863406724	-1.627502491173347	9.988668137137189	124.3757642442808	0	0
3.680000000000003	0.6638059076499301	-1.230781928114916	46.04241715378227	0	0.9399999999999999	0	27.2819022066424	-8.837742945004118	-7.946923381616175	31.7514599417916	0.5541675182993505	0	0	0	27.2819022066424	-8.837742945004118	-7.946923381616175	31.7514599417916	0.5541675182993505	0	0	0	-0.09712629954263166	-1.048823512584431	13.34351291051035	96.83251068881185	-0.1744977077865258	32.18242282038356	10.29240586532164	40.90997687384242	0	0	16.78363825006712	-6.81169970866267	-1.080449486578317	9.968151587988112	123.8502936902154	0	0
3.700000000000003	0.7770823563641941	-1.300321009682988	46.72895816427429	0	0.9399999999999999	0	27.4526755190884	-8.864325126915185	-7.981386317944553	31.95589498146386	0.5577355828480767	0	0	0	27.4526755190884	-8.864325126915185	-7.981386317944553	31.95589498146386	0.5577355828480767	0	0	0	-0.07097484245711309	-1.178575438857008	13.11892014905878	98.92523269766664	0.6356216392207871	32.15314490889153	12.76278942367771	42.95971536341992	0	0	16.73587071232667	-6.940595486268055	-1.368315021110085	9.961189974385961	124.2012863316266	0	0
3.720000000000003	0.8818275068454071	-1.361884267934103	47.08847039717408	0	0.9399999999999999	0	27.5064037508725	-8.873045079519228	-7.992478959325664	32.01882825022445	0.5588339755969914	0	0	0	27.5064037508725	-8.873045079519228	-7.992478959325664	32.01882825022445	0.5588339755969914	0	0	0	-0.04424564284910489	-1.300046397175049	13.16385980652921	100.6206177441569	1.665785298963467	32.28779084325884	12.65110006945321	42.87934824374837	0	0	16.52509538225196	-7.151261457286155	-2.670018855354936	10.11915811489305	125.5288548551181	0	0
